<svg width="121" height="120" viewBox="0 0 121 120" fill="none" xmlns="http://www.w3.org/2000/svg">
<ellipse rx="60.5" ry="60" transform="matrix(-1 0 0 1 60.5 60)" fill="white"/>
<path d="M41.5703 85V33.8125H57.3203C61.8203 33.8125 65.8398 34.832 69.3789 36.8711C72.9414 38.8867 75.7188 41.7695 77.7109 45.5195C79.7031 49.2461 80.6992 53.4883 80.6992 58.2461V60.6016C80.6992 65.3594 79.7148 69.5898 77.7461 73.293C75.8008 76.9961 73.0469 79.8672 69.4844 81.9062C65.9219 83.9453 61.9023 84.9766 57.4258 85H41.5703ZM52.1172 42.3555V76.5273H57.2148C61.3398 76.5273 64.4922 75.1797 66.6719 72.4844C68.8516 69.7891 69.9648 65.9336 70.0117 60.918V58.2109C70.0117 53.0078 68.9336 49.0703 66.7773 46.3984C64.6211 43.7031 61.4688 42.3555 57.3203 42.3555H52.1172Z" fill="#4152AF"/>
</svg>
